# xmcd
#
# Track frame offsets: 
#        150
#        14614
#        27168
#        43000
#        60179
#        74449
#        94789
#        110741
#        129159
#        144748
#        157437
#        172315
#
# Disc length: 2564 seconds
#
# Revision: 0
# Processed by: cddbd v1.5.2PL0 Copyright (c) Steve Scherf et al.
# Submitted via: ExactAudioCopyFreeDBPlugin 1.0
#
DISCID=af0a020c
DTITLE=New West - Buy A Song
DYEAR=2015
DGENRE=Country
TTITLE0=One More Last Chance
TTITLE1=Callin' Caroline
TTITLE2=Empty
TTITLE3=Angel From Montgomery
TTITLE4=No Way Out
TTITLE5=Tennessee Rain
TTITLE6=Girls Lie Too
TTITLE7=Today I Started Loving You Again
TTITLE8=Stay With Me
TTITLE9=Hello Honky Tonk
TTITLE10=Heaven In My Woman's Eyes
TTITLE11=Remember When
EXTD=
EXTT0=
EXTT1=
EXTT2=
EXTT3=
EXTT4=
EXTT5=
EXTT6=
EXTT7=
EXTT8=
EXTT9=
EXTT10=
EXTT11=
PLAYORDER=
